<mxfile host="app.diagrams.net" modified="2024-05-26T12:15:05.742Z" agent="Mozilla/5.0 (Windows NT 10.0; Win64; x64) AppleWebKit/537.36 (KHTML, like Gecko) Chrome/125.0.0.0 Safari/537.36 Edg/125.0.0.0" etag="xtCjfJ9kC2wcKtOXTKp0" version="24.4.8" type="github">
  <diagram name="Page-1" id="2YBvvXClWsGukQMizWep">
    <mxGraphModel dx="1596" dy="459" grid="1" gridSize="10" guides="1" tooltips="1" connect="1" arrows="1" fold="1" page="1" pageScale="1" pageWidth="850" pageHeight="1100" math="0" shadow="0">
      <root>
        <mxCell id="0" />
        <mxCell id="1" parent="0" />
        <mxCell id="OvajwRkse5KBkRSLhCtJ-12" style="edgeStyle=orthogonalEdgeStyle;rounded=0;orthogonalLoop=1;jettySize=auto;html=1;strokeColor=#0F2FFF;" edge="1" parent="1" source="OvajwRkse5KBkRSLhCtJ-2">
          <mxGeometry relative="1" as="geometry">
            <mxPoint x="160" y="340" as="targetPoint" />
          </mxGeometry>
        </mxCell>
        <mxCell id="OvajwRkse5KBkRSLhCtJ-2" value="Radiometric correction" style="rounded=1;whiteSpace=wrap;html=1;fillColor=#ffe6cc;strokeColor=#d79b00;strokeWidth=0;shadow=1;" vertex="1" parent="1">
          <mxGeometry x="100" y="380" width="120" height="60" as="geometry" />
        </mxCell>
        <mxCell id="OvajwRkse5KBkRSLhCtJ-11" style="edgeStyle=orthogonalEdgeStyle;rounded=0;orthogonalLoop=1;jettySize=auto;html=1;entryX=0.5;entryY=0;entryDx=0;entryDy=0;strokeColor=#0F2FFF;" edge="1" parent="1" source="OvajwRkse5KBkRSLhCtJ-3" target="OvajwRkse5KBkRSLhCtJ-9">
          <mxGeometry relative="1" as="geometry" />
        </mxCell>
        <mxCell id="OvajwRkse5KBkRSLhCtJ-3" value="Atmoshpheric correction" style="rounded=1;whiteSpace=wrap;html=1;fillColor=#ffe6cc;strokeColor=#d79b00;strokeWidth=0;shadow=1;" vertex="1" parent="1">
          <mxGeometry x="100" y="200" width="120" height="60" as="geometry" />
        </mxCell>
        <mxCell id="OvajwRkse5KBkRSLhCtJ-14" style="edgeStyle=orthogonalEdgeStyle;rounded=0;orthogonalLoop=1;jettySize=auto;html=1;entryX=0;entryY=0.5;entryDx=0;entryDy=0;strokeColor=#0F2FFF;" edge="1" parent="1" source="OvajwRkse5KBkRSLhCtJ-4" target="OvajwRkse5KBkRSLhCtJ-5">
          <mxGeometry relative="1" as="geometry" />
        </mxCell>
        <mxCell id="OvajwRkse5KBkRSLhCtJ-4" value="Bad band removal&amp;nbsp;" style="rounded=1;whiteSpace=wrap;html=1;fillColor=#ffe6cc;strokeColor=#d79b00;strokeWidth=0;shadow=1;" vertex="1" parent="1">
          <mxGeometry x="200" y="290" width="120" height="60" as="geometry" />
        </mxCell>
        <mxCell id="OvajwRkse5KBkRSLhCtJ-15" style="edgeStyle=orthogonalEdgeStyle;rounded=0;orthogonalLoop=1;jettySize=auto;html=1;strokeColor=#0F2FFF;" edge="1" parent="1" source="OvajwRkse5KBkRSLhCtJ-5" target="OvajwRkse5KBkRSLhCtJ-6">
          <mxGeometry relative="1" as="geometry" />
        </mxCell>
        <mxCell id="OvajwRkse5KBkRSLhCtJ-5" value="Stripping Error correction" style="rounded=1;whiteSpace=wrap;html=1;fillColor=#ffe6cc;strokeColor=#d79b00;strokeWidth=0;shadow=1;" vertex="1" parent="1">
          <mxGeometry x="340" y="290" width="120" height="60" as="geometry" />
        </mxCell>
        <mxCell id="OvajwRkse5KBkRSLhCtJ-16" style="edgeStyle=orthogonalEdgeStyle;rounded=0;orthogonalLoop=1;jettySize=auto;html=1;entryX=0;entryY=0.5;entryDx=0;entryDy=0;strokeColor=#0F2FFF;" edge="1" parent="1" source="OvajwRkse5KBkRSLhCtJ-6" target="OvajwRkse5KBkRSLhCtJ-8">
          <mxGeometry relative="1" as="geometry" />
        </mxCell>
        <mxCell id="OvajwRkse5KBkRSLhCtJ-6" value="Band analysis and Apply band indices" style="rounded=1;whiteSpace=wrap;html=1;fillColor=#ffe6cc;strokeColor=#d79b00;strokeWidth=0;shadow=1;" vertex="1" parent="1">
          <mxGeometry x="476" y="290" width="120" height="60" as="geometry" />
        </mxCell>
        <mxCell id="OvajwRkse5KBkRSLhCtJ-10" style="edgeStyle=orthogonalEdgeStyle;rounded=0;orthogonalLoop=1;jettySize=auto;html=1;entryX=0;entryY=0.5;entryDx=0;entryDy=0;strokeColor=#0F2FFF;" edge="1" parent="1" source="OvajwRkse5KBkRSLhCtJ-7" target="OvajwRkse5KBkRSLhCtJ-9">
          <mxGeometry relative="1" as="geometry" />
        </mxCell>
        <mxCell id="OvajwRkse5KBkRSLhCtJ-7" value="EO-1 Hyperion data" style="rounded=1;whiteSpace=wrap;html=1;fillColor=#ffe6cc;strokeColor=#d79b00;strokeWidth=0;shadow=1;" vertex="1" parent="1">
          <mxGeometry y="290" width="120" height="60" as="geometry" />
        </mxCell>
        <mxCell id="OvajwRkse5KBkRSLhCtJ-8" value="Thresholding for water extraction" style="rounded=1;whiteSpace=wrap;html=1;fillColor=#ffe6cc;strokeColor=#d79b00;strokeWidth=0;shadow=1;" vertex="1" parent="1">
          <mxGeometry x="614" y="290" width="120" height="60" as="geometry" />
        </mxCell>
        <mxCell id="OvajwRkse5KBkRSLhCtJ-13" style="edgeStyle=orthogonalEdgeStyle;rounded=0;orthogonalLoop=1;jettySize=auto;html=1;entryX=0;entryY=0.5;entryDx=0;entryDy=0;strokeColor=#0F2FFF;" edge="1" parent="1" source="OvajwRkse5KBkRSLhCtJ-9" target="OvajwRkse5KBkRSLhCtJ-4">
          <mxGeometry relative="1" as="geometry" />
        </mxCell>
        <mxCell id="OvajwRkse5KBkRSLhCtJ-9" value="ENVI" style="rounded=0;whiteSpace=wrap;html=1;" vertex="1" parent="1">
          <mxGeometry x="140" y="305" width="40" height="30" as="geometry" />
        </mxCell>
        <mxCell id="OvajwRkse5KBkRSLhCtJ-17" value="" style="strokeWidth=2;html=1;shape=mxgraph.flowchart.annotation_1;align=left;pointerEvents=1;rotation=-90;dashed=1;strokeColor=#000066;" vertex="1" parent="1">
          <mxGeometry x="276.5" y="274.5" width="20" height="363" as="geometry" />
        </mxCell>
        <mxCell id="OvajwRkse5KBkRSLhCtJ-18" value="" style="strokeWidth=2;html=1;shape=mxgraph.flowchart.annotation_1;align=left;pointerEvents=1;rotation=-90;dashed=1;strokeColor=#003300;" vertex="1" parent="1">
          <mxGeometry x="601.25" y="323.25" width="20" height="265.5" as="geometry" />
        </mxCell>
        <mxCell id="OvajwRkse5KBkRSLhCtJ-19" value="" style="strokeWidth=2;html=1;shape=mxgraph.flowchart.annotation_1;align=left;pointerEvents=1;rotation=-90;dashed=1;strokeColor=#FF0000;" vertex="1" parent="1">
          <mxGeometry x="33.88" y="416.13" width="20" height="79.75" as="geometry" />
        </mxCell>
        <mxCell id="OvajwRkse5KBkRSLhCtJ-21" value="Input data" style="text;html=1;align=center;verticalAlign=middle;whiteSpace=wrap;rounded=0;" vertex="1" parent="1">
          <mxGeometry x="16" y="441.01" width="60" height="30" as="geometry" />
        </mxCell>
        <mxCell id="OvajwRkse5KBkRSLhCtJ-22" value="Preprocessing and data cleaning" style="text;html=1;align=center;verticalAlign=middle;whiteSpace=wrap;rounded=0;" vertex="1" parent="1">
          <mxGeometry x="201" y="440" width="190" height="30" as="geometry" />
        </mxCell>
        <mxCell id="OvajwRkse5KBkRSLhCtJ-23" value="Output" style="text;html=1;align=center;verticalAlign=middle;whiteSpace=wrap;rounded=0;strokeWidth=2;" vertex="1" parent="1">
          <mxGeometry x="554.25" y="436" width="148.75" height="30" as="geometry" />
        </mxCell>
      </root>
    </mxGraphModel>
  </diagram>
</mxfile>
